<?xml version="1.0" encoding="UTF-8"?>
<svg width="40" height="40" viewBox="0 0 40 40" fill="none" xmlns="http://www.w3.org/2000/svg">
    <circle cx="20" cy="20" r="19" stroke="#333333" stroke-width="2"/>
    <path d="M26 14.5C26 13.6716 25.2487 13.0334 24.4358 13.1725L15.4358 14.6725C14.7829 14.7804 14.3086 15.3451 14.3086 16.0001V24.0165C13.8525 23.8245 13.3453 23.7174 12.8086 23.7174C10.8768 23.7174 9.30859 25.2856 9.30859 27.2174C9.30859 29.1492 10.8768 30.7174 12.8086 30.7174C14.7404 30.7174 16.3086 29.1492 16.3086 27.2174V19.7427L24.0001 18.4517V22.0165C23.544 21.8245 23.0368 21.7174 22.5001 21.7174C20.5683 21.7174 19.0001 23.2856 19.0001 25.2174C19.0001 27.1492 20.5683 28.7174 22.5001 28.7174C24.4319 28.7174 26.0001 27.1492 26.0001 25.2174V14.5H26Z" fill="#333333"/>
</svg> 